<svg width="48" height="56" xmlns="http://www.w3.org/2000/svg">

 <g>
  <path stroke-width="0" fill="white" d="m38.333334,33c0,8.3 -6.7,15 -15,15l0,-2c7.2,0 13,-5.8 13,-13l2,0zm-25,9l0,-2l-2,0l0,2l2,0zm3,-1l2,0l0,-2l-2,0l0,2zm1,5l2,0l0,-2l-2,0l0,2zm29,-31c0,0.8 -0.3,1.6 -0.9,2.1s-1.3,0.9 -2.1,0.9l-2,0c-0.7,0 -1.4,-0.3 -2,-0.8c-0.6,0.5 -1.3,0.8 -2,0.8l-2,0c-0.3,0 -0.7,-0.1 -1,-0.2l0,4.2l4,0c0.3,0 0.6,0.2 0.8,0.4c2.1,3.1 3.2,6.8 3.2,10.6c0,10.5 -8.5,19 -19,19s-19,-8.5 -19,-19c0,-3.8 1.1,-7.5 3.2,-10.6c0.2,-0.2 0.5,-0.4 0.8,-0.4l4.6,0l-6,-6l-5.6,0l0,-2l6,0c0.3,0 0.5,0.1 0.7,0.3l7.7,7.7l2.6,0l0,2l-9.5,0c-1.6,2.7 -2.5,5.8 -2.5,9c0,9.4 7.6,17 17,17s17,-7.6 17,-17c0,-3.2 -0.9,-6.3 -2.5,-9l-13,0l-3.7,3.7c-0.3,0.2 -0.5,0.3 -0.8,0.3l-2,0l0,-2l1.6,0l3.7,-3.7c0.2,-0.2 0.4,-0.3 0.7,-0.3l8,0l0,-4.2c-0.3,0.1 -0.7,0.2 -1,0.2l-2,0c-0.7,0 -1.4,-0.3 -2,-0.8c-0.6,0.5 -1.3,0.8 -2,0.8l-2,0c-0.8,0 -1.6,-0.3 -2.1,-0.9c-0.6,-0.5 -0.9,-1.3 -0.9,-2.1c0,-0.3 0.1,-0.6 0.4,-0.8l11.6,-8.7l0,-1.5l2,0l0,1.5l11.6,8.7c0.3,0.2 0.4,0.5 0.4,0.8zm-2.1,0.4l-10.9,-8.1l-10.9,8.2c0,0.1 0.1,0.2 0.2,0.3c0.2,0.2 0.4,0.3 0.7,0.3l2,0c0.3,0 0.5,-0.1 0.7,-0.3c0.2,-0.2 0.3,-0.4 0.3,-0.7c0,-0.6 0.4,-1 1,-1s1,0.4 1,1c0,0.3 0.1,0.5 0.3,0.7c0.2,0.2 0.4,0.3 0.7,0.3l2,0c0.3,0 0.5,-0.1 0.7,-0.3c0.2,-0.2 0.3,-0.4 0.3,-0.7c0,-0.6 0.4,-1 1,-1s1,0.4 1,1c0,0.3 0.1,0.5 0.3,0.7c0.2,0.2 0.4,0.3 0.7,0.3l2,0c0.3,0 0.5,-0.1 0.7,-0.3c0.2,-0.2 0.3,-0.4 0.3,-0.7c0,-0.6 0.4,-1 1,-1s1,0.4 1,1c0,0.3 0.1,0.5 0.3,0.7c0.2,0.2 0.4,0.3 0.7,0.3l2,0c0.3,0 0.5,-0.1 0.7,-0.3c0.1,-0.2 0.2,-0.3 0.2,-0.4z" id="svg_1"/>
 </g>
</svg>